#!OML:ASF E:/inclinewalkrobotboard/Project1/Captureday1/Session1/subject1.ASF
:FULLY-SPECIFIED
:DEGREES
238
root 0 0 0 -9.294742174431795 -36.67808258239708 0.6050841028892922
lowerback 0.054183978046605574 0.5509189595584817 4.586915755199
upperback -1.7109742337782419 1.328357713846661 -0.12137213664689617
thorax -1.7369738021910404 0.678721373588238 -2.711973372816957
lowerneck -11.293817163585011 0.2883112862730375 -4.945404027209498
upperneck -2.6132742021528017 0.6471294148730564 3.1447800173650373
head 1.1978573636706904 0.5259064457692468 1.8434633746078706
rclavicle -1.1041075040348727E-14 -1.909355521166745E-16
rhumerus 4.0373015750459755 -9.92846846730905 -66.82212959127199
rradius 17.765936920039245
rwrist 56.84104819593091
rhand -6.994072549368232 20.822622502943876
rfingers 7.125019999999921
rthumb 18.86579298956905 -8.860429147862433
lclavicle -1.0520117611864593E-14 2.7305882337671342E-15
lhumerus -30.19825405339077 1.4931567003043575 80.602366281622
lradius 27.052356372902793
lwrist -40.29874847180059
lhand -6.597969888225575 14.721931489459037
lfingers 7.034974372272696
lthumb 18.917977115806277 41.708623599534874
rfemur 8.898014841252689 9.04573178240986 37.596485854085934
rtibia 24.57080540005906
rfoot -23.322919313848658 -5.521402399754419
rtoes 6.134603286590801
lfemur -13.186166452695016 3.124815140290165 -13.286664678075
ltibia 69.70937045710957
lfoot 6.073228267379802 -15.312300761406561
ltoes -15.748364549708313
239
root 0 0 0 -7.9067794696575575 -36.08983489925228 0.29009056702052655
lowerback 0.5143850074377223 0.7636273968328829 4.690595325748352
upperback -1.5036653181437765 1.5864758780581982 -0.14925919738186538
thorax -1.7829398458933416 0.810590562470231 -2.831065390503671
lowerneck -10.928134787780646 0.28066139380844124 -4.978287229573151
upperneck -2.4966823529201427 0.6421123744791304 3.1681519475558986
head 1.1522680418549038 0.5163557204096296 1.8605419580248659
rclavicle -1.1056454154684352E-14 -2.1272734251936658E-16
rhumerus 4.291997902166413 -9.893722794191016 -66.70541453452238
rradius 17.84656251738071
rwrist 56.731491623092424
rhand -7.0290218857839015 20.766320726617693
rfingers 7.125019999999922
rthumb 18.831831615166095 -8.917340394758376
lclavicle -1.0663543711198788E-14 2.5152399146355295E-15
lhumerus -30.117669050505235 1.527994553009865 80.52660969204081
lradius 26.86494559124585
lwrist -40.19129175186137
lhand -6.590795396410039 14.772299734876718
lfingers 7.035462302734773
lthumb 18.927064037451203 40.69682006322773
rfemur 9.330708101822623 9.060938961058424 37.6450124901442
rtibia 24.616367429901494
rfoot -23.563134448438227 -5.496175601088853
rtoes 5.700918251055247
lfemur -14.159286109179403 3.181793132886119 -13.026368242495593
ltibia 69.42609568787401
lfoot 5.493898467439317 -14.92357104696945
ltoes -16.238376337951458
240
root 0 0 0 -6.82430938201461 -35.543821719891255 -0.06352218285278272
lowerback 0.9284332473636727 0.9519016463458859 4.738026631482149
upperback -1.314030122907949 1.8110552985286361 -0.19056447035444718
thorax -1.824511948072329 0.9250902684233235 -2.927683898133316
lowerneck -10.59818206187221 0.21939260060603205 -5.008179159742188
upperneck -2.325413360042024 0.5651478148398361 3.2496258495649695
head 1.1434298695044922 0.4717537294213372 1.8917688965345831
rclavicle -1.1109936268326588E-14 -2.2492920742131555E-16
rhumerus 4.493535944321162 -9.860579556399548 -66.61571935785283
rradius 17.917014105060574
rwrist 56.65139026373767
rhand -7.056927622730184 20.73098313833313
rfingers 7.125019999999923
rthumb 18.804742310000282 -8.953339122772991
lclavicle -1.08450744291214E-14 2.3429263929133787E-15
lhumerus -30.08165858407962 1.5699666640841805 80.45957770983978
lradius 26.659979082947324
lwrist -40.09529600707772
lhand -6.55533374224297 14.836441893372726
lfingers 7.036169710454321
lthumb 18.96391221466948 39.72592933489029
rfemur 9.772808442274194 9.069514927985388 37.678567428396725
rtibia 24.68141213327869
rfoot -23.63601655032552 -5.431799165875935
rtoes 5.291229788467829
lfemur -14.801230872027254 3.1887623666034797 -12.837875714567138
ltibia 69.06258726969949
lfoot 5.1142013162734425 -14.653938032108979
ltoes -16.610877813025212
241
root 0 0 0 -6.005253964517145 -35.12562828490193 -0.43030865212559827
lowerback 1.2707683457251164 1.1153718054204278 4.740358660623829
upperback -1.151627443407064 2.003841060461757 -0.23848523314203252
thorax -1.8559356011678008 1.0229595708654386 -3.001653861693017
lowerneck -10.31828003701336 0.1224619687932873 -5.036890838873648
upperneck -2.087555623762494 0.4370020633359015 3.3794445862269993
head 1.1730636842780573 0.4029599435381832 1.9348624168144706
rclavicle -1.1184300995307295E-14 -2.2532931067210873E-16
rhumerus 4.62731829010689 -9.824283587165136 -66.55793195034427
rradius 17.976251430622177
rwrist 56.59635745862009
rhand -7.0765264939106025 20.71152344788863
rfingers 7.125019999999923
rthumb 18.78570916009694 -8.973326392412293
lclavicle -1.1030517960727104E-14 2.2269482655058353E-15
lhumerus -30.091318874266406 1.5985217811777055 80.42016083288803
lradius 26.485695781083635
lwrist -40.01228545202265
lhand -6.506463386830782 14.906249954234719
lfingers 7.036904930056364
lthumb 19.01355278583364 38.89075127942057
rfemur 10.170410520070902 9.071240491606513 37.69905097771191
rtibia 24.755197597293535
rfoot -23.579306153548366 -5.346091943868167
rtoes 4.947197960293648
lfemur -15.232755863634114 3.177452014850026 -12.709177623645406
ltibia 68.75615662201352
lfoot 4.890726897805328 -14.481016304518189
ltoes -16.845136832727214
